<?xml version="1.0" encoding="UTF-8" standalone="no"?>
<svg
   version="1.1"
   xml:space="preserve"
   width="500px"
   height="300px"
   viewBox="0 0 500 300"
   id="svg120"
   sodipodi:docname="rotatable_nonterminal_bonds.svg"
   inkscape:version="1.1.2 (0a00cf5339, 2022-02-04, custom)"
   xmlns:inkscape="http://www.inkscape.org/namespaces/inkscape"
   xmlns:sodipodi="http://sodipodi.sourceforge.net/DTD/sodipodi-0.dtd"
   xmlns="http://www.w3.org/2000/svg"
   xmlns:svg="http://www.w3.org/2000/svg"><defs
   id="defs124" /><sodipodi:namedview
   id="namedview122"
   pagecolor="#ffffff"
   bordercolor="#666666"
   borderopacity="1.0"
   inkscape:pageshadow="2"
   inkscape:pageopacity="0.0"
   inkscape:pagecheckerboard="0"
   showgrid="false"
   inkscape:zoom="1.4174391"
   inkscape:cx="173.19968"
   inkscape:cy="97.005931"
   inkscape:window-width="1866"
   inkscape:window-height="1052"
   inkscape:window-x="1920"
   inkscape:window-y="0"
   inkscape:window-maximized="1"
   inkscape:current-layer="svg120" />\n<path
   class="bond-7 atom-3 atom-7"
   d="M 401.5,156.2 L 363.7,134.2"
   style="fill:none;fill-rule:evenodd;stroke:#b3ff9b;stroke-width:10;stroke-linecap:round;stroke-linejoin:miter;stroke-opacity:1;stroke-miterlimit:4;stroke-dasharray:none"
   id="path941" /><path
   class="bond-9 atom-7 atom-9"
   d="M 363.7,134.2 L 347.9,143.2"
   style="fill:none;fill-rule:evenodd;stroke:#b3ff9b;stroke-width:10;stroke-linecap:round;stroke-linejoin:miter;stroke-opacity:1;stroke-miterlimit:4;stroke-dasharray:none"
   id="path943" /><path
   class="bond-9 atom-7 atom-9"
   d="M 347.9,143.2 L 332.1,152.3"
   style="fill:none;fill-rule:evenodd;stroke:#b3ff9b;stroke-width:10;stroke-linecap:round;stroke-linejoin:miter;stroke-opacity:1;stroke-miterlimit:4;stroke-dasharray:none"
   id="path945" /><path
   class="bond-10 atom-9 atom-10"
   d="M 319.4,152.2 L 303.7,143.0"
   style="fill:none;fill-rule:evenodd;stroke:#b3ff9b;stroke-width:10;stroke-linecap:round;stroke-linejoin:miter;stroke-opacity:1;stroke-miterlimit:4;stroke-dasharray:none"
   id="path947" /><path
   class="bond-10 atom-9 atom-10"
   d="M 303.7,143.0 L 288.0,133.9"
   style="fill:none;fill-rule:evenodd;stroke:#b3ff9b;stroke-width:10;stroke-linecap:round;stroke-linejoin:miter;stroke-opacity:1;stroke-miterlimit:4;stroke-dasharray:none"
   id="path949" /><path
   class="bond-17 atom-14 atom-16"
   d="M 212.2,133.6 L 196.4,142.7"
   style="fill:none;fill-rule:evenodd;stroke:#b3ff9b;stroke-width:10;stroke-linecap:round;stroke-linejoin:miter;stroke-opacity:1;stroke-miterlimit:4;stroke-dasharray:none"
   id="path951" /><path
   class="bond-17 atom-14 atom-16"
   d="M 196.4,142.7 L 180.6,151.7"
   style="fill:none;fill-rule:evenodd;stroke:#b3ff9b;stroke-width:10;stroke-linecap:round;stroke-linejoin:miter;stroke-opacity:1;stroke-miterlimit:4;stroke-dasharray:none"
   id="path953" /><path
   class="bond-18 atom-16 atom-17"
   d="M 167.9,151.7 L 152.2,142.5"
   style="fill:none;fill-rule:evenodd;stroke:#b3ff9b;stroke-width:10;stroke-linecap:round;stroke-linejoin:miter;stroke-opacity:1;stroke-miterlimit:4;stroke-dasharray:none"
   id="path955" /><path
   class="bond-18 atom-16 atom-17"
   d="M 152.2,142.5 L 136.4,133.4"
   style="fill:none;fill-rule:evenodd;stroke:#b3ff9b;stroke-width:10;stroke-linecap:round;stroke-linejoin:miter;stroke-opacity:1;stroke-miterlimit:4;stroke-dasharray:none"
   id="path957" /><path
   class="bond-20 atom-17 atom-19"
   d="M 136.4,133.4 L 98.5,155.1"
   style="fill:none;fill-rule:evenodd;stroke:#b3ff9b;stroke-width:10;stroke-linecap:round;stroke-linejoin:miter;stroke-opacity:1;stroke-miterlimit:4;stroke-dasharray:none"
   id="path959" /><path
   class="bond-21 atom-19 atom-20"
   d="M 98.5,155.1 L 98.3,198.8"
   style="fill:none;fill-rule:evenodd;stroke:#b3ff9b;stroke-width:10;stroke-linecap:round;stroke-linejoin:miter;stroke-opacity:1;stroke-miterlimit:4;stroke-dasharray:none"
   id="path961" /><!-- END OF HEADER --><path
   class="bond-23 atom-19 atom-22"
   d="M 98.5,155.1 L 60.7,133.1"
   style="fill:none;fill-rule:evenodd;stroke:#b3ff9b;stroke-width:10;stroke-linecap:round;stroke-linejoin:miter;stroke-opacity:1;stroke-miterlimit:4;stroke-dasharray:none"
   id="path963" />\n\n<path
   class="bond-0 atom-0 atom-5"
   d="M 477.1,200.2 L 439.2,221.9"
   style="fill:none;fill-rule:evenodd;stroke:#000000;stroke-width:2px;stroke-linecap:round;stroke-linejoin:miter;stroke-opacity:1"
   id="path4" />\n<path
   class="bond-0 atom-0 atom-5"
   d="M 467.5,196.6 L 440.9,211.8"
   style="fill:none;fill-rule:evenodd;stroke:#000000;stroke-width:2px;stroke-linecap:round;stroke-linejoin:miter;stroke-opacity:1"
   id="path6" />\n<path
   class="bond-1 atom-0 atom-1"
   d="M 477.1,200.2 L 477.3,156.4"
   style="fill:none;fill-rule:evenodd;stroke:#000000;stroke-width:2px;stroke-linecap:round;stroke-linejoin:miter;stroke-opacity:1"
   id="path8" />\n<path
   class="bond-2 atom-1 atom-2"
   d="M 477.3,156.4 L 439.5,134.4"
   style="fill:none;fill-rule:evenodd;stroke:#000000;stroke-width:2px;stroke-linecap:round;stroke-linejoin:miter;stroke-opacity:1"
   id="path10" />\n<path
   class="bond-2 atom-1 atom-2"
   d="M 467.6,160.0 L 441.2,144.5"
   style="fill:none;fill-rule:evenodd;stroke:#000000;stroke-width:2px;stroke-linecap:round;stroke-linejoin:miter;stroke-opacity:1"
   id="path12" />\n<path
   class="bond-3 atom-2 atom-3"
   d="M 439.5,134.4 L 401.5,156.2"
   style="fill:none;fill-rule:evenodd;stroke:#000000;stroke-width:2px;stroke-linecap:round;stroke-linejoin:miter;stroke-opacity:1"
   id="path14" />\n<path
   class="bond-25 atom-2 atom-24"
   d="M 439.5,134.4 L 439.5,116.9"
   style="fill:none;fill-rule:evenodd;stroke:#000000;stroke-width:2px;stroke-linecap:round;stroke-linejoin:miter;stroke-opacity:1"
   id="path16" />\n<path
   class="bond-25 atom-2 atom-24"
   d="M 439.5,116.9 L 439.6,99.4"
   style="fill:none;fill-rule:evenodd;stroke:#00CC00;stroke-width:2px;stroke-linecap:butt;stroke-linejoin:miter;stroke-opacity:1"
   id="path18" />\n<path
   class="bond-4 atom-3 atom-4"
   d="M 401.5,156.2 L 401.4,199.9"
   style="fill:none;fill-rule:evenodd;stroke:#000000;stroke-width:2px;stroke-linecap:round;stroke-linejoin:miter;stroke-opacity:1"
   id="path20" />\n<path
   class="bond-4 atom-3 atom-4"
   d="M 409.4,162.8 L 409.3,193.4"
   style="fill:none;fill-rule:evenodd;stroke:#000000;stroke-width:2px;stroke-linecap:round;stroke-linejoin:miter;stroke-opacity:1"
   id="path22" />\n<path
   class="bond-7 atom-3 atom-7"
   d="M 401.5,156.2 L 363.7,134.2"
   style="fill:none;fill-rule:evenodd;stroke:#000000;stroke-width:2px;stroke-linecap:round;stroke-linejoin:miter;stroke-opacity:1"
   id="path24" />\n<path
   class="bond-5 atom-4 atom-5"
   d="M 401.4,199.9 L 439.2,221.9"
   style="fill:none;fill-rule:evenodd;stroke:#000000;stroke-width:2px;stroke-linecap:round;stroke-linejoin:miter;stroke-opacity:1"
   id="path26" />\n<path
   class="bond-6 atom-4 atom-6"
   d="M 401.4,199.9 L 383.4,210.2"
   style="fill:none;fill-rule:evenodd;stroke:#000000;stroke-width:2px;stroke-linecap:round;stroke-linejoin:miter;stroke-opacity:1"
   id="path28" />\n<path
   class="bond-6 atom-4 atom-6"
   d="M 383.4,210.2 L 365.4,220.5"
   style="fill:none;fill-rule:evenodd;stroke:#00CC00;stroke-width:2px;stroke-linecap:butt;stroke-linejoin:miter;stroke-opacity:1"
   id="path30" />\n<path
   class="bond-8 atom-7 atom-8"
   d="M 367.7,134.2 L 367.7,116.5"
   style="fill:none;fill-rule:evenodd;stroke:#000000;stroke-width:2px;stroke-linecap:round;stroke-linejoin:miter;stroke-opacity:1"
   id="path32" />\n<path
   class="bond-8 atom-7 atom-8"
   d="M 367.7,116.5 L 367.8,98.8"
   style="fill:none;fill-rule:evenodd;stroke:#FF0000;stroke-width:2px;stroke-linecap:butt;stroke-linejoin:miter;stroke-opacity:1"
   id="path34" />\n<path
   class="bond-8 atom-7 atom-8"
   d="M 359.8,134.2 L 359.8,116.5"
   style="fill:none;fill-rule:evenodd;stroke:#000000;stroke-width:2px;stroke-linecap:round;stroke-linejoin:miter;stroke-opacity:1"
   id="path36" />\n<path
   class="bond-8 atom-7 atom-8"
   d="M 359.8,116.5 L 359.9,98.8"
   style="fill:none;fill-rule:evenodd;stroke:#FF0000;stroke-width:2px;stroke-linecap:butt;stroke-linejoin:miter;stroke-opacity:1"
   id="path38" />\n<path
   class="bond-9 atom-7 atom-9"
   d="M 363.7,134.2 L 347.9,143.2"
   style="fill:none;fill-rule:evenodd;stroke:#000000;stroke-width:2px;stroke-linecap:round;stroke-linejoin:miter;stroke-opacity:1"
   id="path40" />\n<path
   class="bond-9 atom-7 atom-9"
   d="M 347.9,143.2 L 332.1,152.3"
   style="fill:none;fill-rule:evenodd;stroke:#0000FF;stroke-width:2px;stroke-linecap:butt;stroke-linejoin:miter;stroke-opacity:1"
   id="path42" />\n<path
   class="bond-10 atom-9 atom-10"
   d="M 319.4,152.2 L 303.7,143.0"
   style="fill:none;fill-rule:evenodd;stroke:#0000FF;stroke-width:2px;stroke-linecap:butt;stroke-linejoin:miter;stroke-opacity:1"
   id="path44" />\n<path
   class="bond-10 atom-9 atom-10"
   d="M 303.7,143.0 L 288.0,133.9"
   style="fill:none;fill-rule:evenodd;stroke:#000000;stroke-width:2px;stroke-linecap:round;stroke-linejoin:miter;stroke-opacity:1"
   id="path46" />\n<path
   class="bond-11 atom-10 atom-15"
   d="M 288.0,133.9 L 250.0,155.6"
   style="fill:none;fill-rule:evenodd;stroke:#000000;stroke-width:2px;stroke-linecap:round;stroke-linejoin:miter;stroke-opacity:1"
   id="path48" />\n<path
   class="bond-12 atom-10 atom-11"
   d="M 288.0,133.9 L 288.1,90.2"
   style="fill:none;fill-rule:evenodd;stroke:#000000;stroke-width:2px;stroke-linecap:round;stroke-linejoin:miter;stroke-opacity:1"
   id="path50" />\n<path
   class="bond-12 atom-10 atom-11"
   d="M 280.1,127.3 L 280.2,96.7"
   style="fill:none;fill-rule:evenodd;stroke:#000000;stroke-width:2px;stroke-linecap:round;stroke-linejoin:miter;stroke-opacity:1"
   id="path52" />\n<path
   class="bond-13 atom-11 atom-12"
   d="M 288.1,90.2 L 250.3,68.2"
   style="fill:none;fill-rule:evenodd;stroke:#000000;stroke-width:2px;stroke-linecap:round;stroke-linejoin:miter;stroke-opacity:1"
   id="path54" />\n<path
   class="bond-14 atom-12 atom-13"
   d="M 250.3,68.2 L 234.5,77.2"
   style="fill:none;fill-rule:evenodd;stroke:#000000;stroke-width:2px;stroke-linecap:round;stroke-linejoin:miter;stroke-opacity:1"
   id="path56" />\n<path
   class="bond-14 atom-12 atom-13"
   d="M 234.5,77.2 L 218.7,86.2"
   style="fill:none;fill-rule:evenodd;stroke:#0000FF;stroke-width:2px;stroke-linecap:butt;stroke-linejoin:miter;stroke-opacity:1"
   id="path58" />\n<path
   class="bond-14 atom-12 atom-13"
   d="M 249.5,77.7 L 238.4,84.0"
   style="fill:none;fill-rule:evenodd;stroke:#000000;stroke-width:2px;stroke-linecap:round;stroke-linejoin:miter;stroke-opacity:1"
   id="path60" />\n<path
   class="bond-14 atom-12 atom-13"
   d="M 238.4,84.0 L 227.4,90.4"
   style="fill:none;fill-rule:evenodd;stroke:#0000FF;stroke-width:2px;stroke-linecap:round;stroke-linejoin:miter;stroke-opacity:1"
   id="path62" />\n<path
   class="bond-15 atom-13 atom-14"
   d="M 212.3,97.9 L 212.3,115.8"
   style="fill:none;fill-rule:evenodd;stroke:#0000FF;stroke-width:2px;stroke-linecap:butt;stroke-linejoin:miter;stroke-opacity:1"
   id="path64" />\n<path
   class="bond-15 atom-13 atom-14"
   d="M 212.3,115.8 L 212.2,133.6"
   style="fill:none;fill-rule:evenodd;stroke:#000000;stroke-width:2px;stroke-linecap:round;stroke-linejoin:miter;stroke-opacity:1"
   id="path66" />\n<path
   class="bond-16 atom-14 atom-15"
   d="M 212.2,133.6 L 250.0,155.6"
   style="fill:none;fill-rule:evenodd;stroke:#000000;stroke-width:2px;stroke-linecap:round;stroke-linejoin:miter;stroke-opacity:1"
   id="path68" />\n<path
   class="bond-16 atom-14 atom-15"
   d="M 221.8,130.1 L 248.3,145.5"
   style="fill:none;fill-rule:evenodd;stroke:#000000;stroke-width:2px;stroke-linecap:round;stroke-linejoin:miter;stroke-opacity:1"
   id="path70" />\n<path
   class="bond-17 atom-14 atom-16"
   d="M 212.2,133.6 L 196.4,142.7"
   style="fill:none;fill-rule:evenodd;stroke:#000000;stroke-width:2px;stroke-linecap:round;stroke-linejoin:miter;stroke-opacity:1"
   id="path72" />\n<path
   class="bond-17 atom-14 atom-16"
   d="M 196.4,142.7 L 180.6,151.7"
   style="fill:none;fill-rule:evenodd;stroke:#0000FF;stroke-width:2px;stroke-linecap:butt;stroke-linejoin:miter;stroke-opacity:1"
   id="path74" />\n<path
   class="bond-18 atom-16 atom-17"
   d="M 167.9,151.7 L 152.2,142.5"
   style="fill:none;fill-rule:evenodd;stroke:#0000FF;stroke-width:2px;stroke-linecap:butt;stroke-linejoin:miter;stroke-opacity:1"
   id="path76" />\n<path
   class="bond-18 atom-16 atom-17"
   d="M 152.2,142.5 L 136.4,133.4"
   style="fill:none;fill-rule:evenodd;stroke:#000000;stroke-width:2px;stroke-linecap:round;stroke-linejoin:miter;stroke-opacity:1"
   id="path78" />\n<path
   class="bond-19 atom-17 atom-18"
   d="M 140.4,133.4 L 140.4,115.7"
   style="fill:none;fill-rule:evenodd;stroke:#000000;stroke-width:2px;stroke-linecap:round;stroke-linejoin:miter;stroke-opacity:1"
   id="path80" />\n<path
   class="bond-19 atom-17 atom-18"
   d="M 140.4,115.7 L 140.5,98.0"
   style="fill:none;fill-rule:evenodd;stroke:#FF0000;stroke-width:2px;stroke-linecap:butt;stroke-linejoin:miter;stroke-opacity:1"
   id="path82" />\n<path
   class="bond-19 atom-17 atom-18"
   d="M 132.5,133.3 L 132.6,115.6"
   style="fill:none;fill-rule:evenodd;stroke:#000000;stroke-width:2px;stroke-linecap:round;stroke-linejoin:miter;stroke-opacity:1"
   id="path84" />\n<path
   class="bond-19 atom-17 atom-18"
   d="M 132.6,115.6 L 132.6,98.0"
   style="fill:none;fill-rule:evenodd;stroke:#FF0000;stroke-width:2px;stroke-linecap:butt;stroke-linejoin:miter;stroke-opacity:1"
   id="path86" />\n<path
   class="bond-20 atom-17 atom-19"
   d="M 136.4,133.4 L 98.5,155.1"
   style="fill:none;fill-rule:evenodd;stroke:#000000;stroke-width:2px;stroke-linecap:round;stroke-linejoin:miter;stroke-opacity:1"
   id="path88" />\n<path
   class="bond-21 atom-19 atom-20"
   d="M 98.5,155.1 L 98.3,198.8"
   style="fill:none;fill-rule:evenodd;stroke:#000000;stroke-width:2px;stroke-linecap:round;stroke-linejoin:miter;stroke-opacity:1"
   id="path90" />\n<path
   class="bond-23 atom-19 atom-22"
   d="M 98.5,155.1 L 60.7,133.1"
   style="fill:none;fill-rule:evenodd;stroke:#000000;stroke-width:2px;stroke-linecap:round;stroke-linejoin:miter;stroke-opacity:1"
   id="path92" />\n<path
   class="bond-22 atom-20 atom-21"
   d="M 98.3,198.8 L 60.4,220.6"
   style="fill:none;fill-rule:evenodd;stroke:#000000;stroke-width:2px;stroke-linecap:round;stroke-linejoin:miter;stroke-opacity:1"
   id="path94" />\n<path
   class="bond-24 atom-22 atom-23"
   d="M 60.7,133.1 L 22.7,154.8"
   style="fill:none;fill-rule:evenodd;stroke:#000000;stroke-width:2px;stroke-linecap:round;stroke-linejoin:miter;stroke-opacity:1"
   id="path96" />\n<path
   class="atom-6"
   d="M 350.1 222.1 Q 350.1 218.7, 351.7 216.9 Q 353.3 215.0, 356.4 215.0 Q 359.3 215.0, 360.8 217.1 L 359.5 218.1 Q 358.4 216.6, 356.4 216.6 Q 354.3 216.6, 353.2 218.1 Q 352.1 219.5, 352.1 222.1 Q 352.1 224.9, 353.2 226.3 Q 354.4 227.7, 356.6 227.7 Q 358.1 227.7, 359.9 226.8 L 360.5 228.3 Q 359.8 228.7, 358.7 229.0 Q 357.6 229.3, 356.3 229.3 Q 353.3 229.3, 351.7 227.4 Q 350.1 225.6, 350.1 222.1 "
   fill="#00CC00"
   id="path98"
   style="stroke-linecap:round" />\n<path
   class="atom-6"
   d="M 362.5 214.2 L 364.3 214.2 L 364.3 229.1 L 362.5 229.1 L 362.5 214.2 "
   fill="#00CC00"
   id="path100"
   style="stroke-linecap:round" />\n<path
   class="atom-8"
   d="M 357.5 90.5 Q 357.5 87.1, 359.1 85.3 Q 360.8 83.4, 363.9 83.4 Q 367.0 83.4, 368.6 85.3 Q 370.3 87.1, 370.3 90.5 Q 370.3 93.9, 368.6 95.8 Q 366.9 97.7, 363.9 97.7 Q 360.8 97.7, 359.1 95.8 Q 357.5 93.9, 357.5 90.5 M 363.9 96.1 Q 366.0 96.1, 367.1 94.7 Q 368.3 93.3, 368.3 90.5 Q 368.3 87.7, 367.1 86.4 Q 366.0 85.0, 363.9 85.0 Q 361.7 85.0, 360.6 86.3 Q 359.4 87.7, 359.4 90.5 Q 359.4 93.3, 360.6 94.7 Q 361.7 96.1, 363.9 96.1 "
   fill="#FF0000"
   id="path102"
   style="stroke-linecap:round" />\n<path
   class="atom-9"
   d="M 322.7 148.9 L 327.2 156.3 Q 327.7 157.0, 328.4 158.4 Q 329.2 159.7, 329.2 159.8 L 329.2 148.9 L 331.0 148.9 L 331.0 162.9 L 329.1 162.9 L 324.2 154.8 Q 323.7 153.9, 323.1 152.8 Q 322.5 151.7, 322.3 151.4 L 322.3 162.9 L 320.5 162.9 L 320.5 148.9 L 322.7 148.9 "
   fill="#0000FF"
   id="path104"
   style="stroke-linecap:round" />\n<path
   class="atom-9"
   d="M 320.3 164.3 L 322.2 164.3 L 322.2 170.2 L 329.3 170.2 L 329.3 164.3 L 331.2 164.3 L 331.2 178.2 L 329.3 178.2 L 329.3 171.8 L 322.2 171.8 L 322.2 178.2 L 320.3 178.2 L 320.3 164.3 "
   fill="#0000FF"
   id="path106"
   style="stroke-linecap:round" />\n<path
   class="atom-13"
   d="M 209.3 82.9 L 213.8 90.3 Q 214.3 91.0, 215.0 92.3 Q 215.7 93.7, 215.8 93.7 L 215.8 82.9 L 217.6 82.9 L 217.6 96.9 L 215.7 96.9 L 210.8 88.8 Q 210.3 87.8, 209.6 86.8 Q 209.1 85.7, 208.9 85.3 L 208.9 96.9 L 207.1 96.9 L 207.1 82.9 L 209.3 82.9 "
   fill="#0000FF"
   id="path108"
   style="stroke-linecap:round" />\n<path
   class="atom-16"
   d="M 171.2 148.4 L 175.7 155.8 Q 176.2 156.5, 176.9 157.8 Q 177.6 159.1, 177.7 159.2 L 177.7 148.4 L 179.5 148.4 L 179.5 162.3 L 177.6 162.3 L 172.7 154.3 Q 172.1 153.3, 171.5 152.2 Q 170.9 151.2, 170.8 150.8 L 170.8 162.3 L 169.0 162.3 L 169.0 148.4 L 171.2 148.4 "
   fill="#0000FF"
   id="path110"
   style="stroke-linecap:round" />\n<path
   class="atom-16"
   d="M 168.8 163.7 L 170.7 163.7 L 170.7 169.7 L 177.8 169.7 L 177.8 163.7 L 179.7 163.7 L 179.7 177.7 L 177.8 177.7 L 177.8 171.2 L 170.7 171.2 L 170.7 177.7 L 168.8 177.7 L 168.8 163.7 "
   fill="#0000FF"
   id="path112"
   style="stroke-linecap:round" />\n<path
   class="atom-18"
   d="M 130.2 89.7 Q 130.2 86.3, 131.9 84.4 Q 133.5 82.6, 136.6 82.6 Q 139.7 82.6, 141.3 84.4 Q 143.0 86.3, 143.0 89.7 Q 143.0 93.0, 141.3 95.0 Q 139.6 96.9, 136.6 96.9 Q 133.5 96.9, 131.9 95.0 Q 130.2 93.1, 130.2 89.7 M 136.6 95.3 Q 138.7 95.3, 139.9 93.9 Q 141.0 92.5, 141.0 89.7 Q 141.0 86.9, 139.9 85.5 Q 138.7 84.1, 136.6 84.1 Q 134.5 84.1, 133.3 85.5 Q 132.2 86.9, 132.2 89.7 Q 132.2 92.5, 133.3 93.9 Q 134.5 95.3, 136.6 95.3 "
   fill="#FF0000"
   id="path114"
   style="stroke-linecap:round" />\n<path
   class="atom-24"
   d="M 434.3 91.2 Q 434.3 87.7, 435.9 85.9 Q 437.5 84.1, 440.6 84.1 Q 443.5 84.1, 445.0 86.1 L 443.7 87.2 Q 442.6 85.7, 440.6 85.7 Q 438.5 85.7, 437.4 87.1 Q 436.3 88.5, 436.3 91.2 Q 436.3 93.9, 437.4 95.4 Q 438.6 96.8, 440.8 96.8 Q 442.3 96.8, 444.1 95.9 L 444.7 97.3 Q 444.0 97.8, 442.9 98.1 Q 441.8 98.4, 440.5 98.4 Q 437.5 98.4, 435.9 96.5 Q 434.3 94.7, 434.3 91.2 "
   fill="#00CC00"
   id="path116"
   style="stroke-linecap:round" />\n<path
   class="atom-24"
   d="M 446.7 83.2 L 448.5 83.2 L 448.5 98.2 L 446.7 98.2 L 446.7 83.2 "
   fill="#00CC00"
   id="path118"
   style="stroke-linecap:round" />\n</svg>
