<?xml version="1.0" encoding="UTF-8" standalone="no"?>
<svg
   version="1.1"
   xml:space="preserve"
   width="500px"
   height="300px"
   viewBox="0 0 500 300"
   id="svg130"
   sodipodi:docname="rotatable_nonterminal_bonds.svg"
   inkscape:version="1.1.2 (0a00cf5339, 2022-02-04, custom)"
   xmlns:inkscape="http://www.inkscape.org/namespaces/inkscape"
   xmlns:sodipodi="http://sodipodi.sourceforge.net/DTD/sodipodi-0.dtd"
   xmlns="http://www.w3.org/2000/svg"
   xmlns:svg="http://www.w3.org/2000/svg"><defs
   id="defs134" /><sodipodi:namedview
   id="namedview132"
   pagecolor="#ffffff"
   bordercolor="#666666"
   borderopacity="1.0"
   inkscape:pageshadow="2"
   inkscape:pageopacity="0.0"
   inkscape:pagecheckerboard="0"
   showgrid="false"
   inkscape:zoom="1.6749107"
   inkscape:cx="246.28178"
   inkscape:cy="126.87243"
   inkscape:window-width="1866"
   inkscape:window-height="1052"
   inkscape:window-x="1920"
   inkscape:window-y="0"
   inkscape:window-maximized="1"
   inkscape:current-layer="svg130" />\n<path
   class="bond-21 atom-19 atom-20"
   d="M 133.6,155.1 L 127.6,194.8 L 139.5,194.8 Z"
   style="fill:#ffff4c;fill-rule:evenodd;fill-opacity:1;stroke:#ffff4c;stroke-width:10;stroke-linecap:butt;stroke-linejoin:miter;stroke-opacity:1;stroke-miterlimit:4;stroke-dasharray:none"
   id="path2431" /><path
   class="bond-7 atom-3 atom-7"
   d="M 408.5,155.4 L 374.2,135.5"
   style="fill:none;fill-rule:evenodd;stroke:#ffff4c;stroke-width:10;stroke-linecap:round;stroke-linejoin:miter;stroke-opacity:1;stroke-miterlimit:4;stroke-dasharray:none"
   id="path15029" /><path
   class="bond-9 atom-7 atom-9"
   d="M 374.2,135.5 L 359.9,143.7"
   style="fill:none;fill-rule:evenodd;stroke:#ffff4c;stroke-width:10;stroke-linecap:round;stroke-linejoin:miter;stroke-opacity:1;stroke-miterlimit:4;stroke-dasharray:none"
   id="path15031" /><path
   class="bond-9 atom-7 atom-9"
   d="M 359.9,143.7 L 345.6,152.0"
   style="fill:none;fill-rule:evenodd;stroke:#ffff4c;stroke-width:10;stroke-linecap:round;stroke-linejoin:miter;stroke-opacity:1;stroke-miterlimit:4;stroke-dasharray:none"
   id="path15033" /><path
   class="bond-10 atom-9 atom-10"
   d="M 334.0,152.0 L 319.7,143.7"
   style="fill:none;fill-rule:evenodd;stroke:#ffff4c;stroke-width:10;stroke-linecap:round;stroke-linejoin:miter;stroke-opacity:1;stroke-miterlimit:4;stroke-dasharray:none"
   id="path15035" /><path
   class="bond-10 atom-9 atom-10"
   d="M 319.7,143.7 L 305.4,135.4"
   style="fill:none;fill-rule:evenodd;stroke:#ffff4c;stroke-width:10;stroke-linecap:round;stroke-linejoin:miter;stroke-opacity:1;stroke-miterlimit:4;stroke-dasharray:none"
   id="path15037" /><path
   class="bond-17 atom-14 atom-16"
   d="M 236.7,135.4 L 222.4,143.6"
   style="fill:none;fill-rule:evenodd;stroke:#ffff4c;stroke-width:10;stroke-linecap:round;stroke-linejoin:miter;stroke-opacity:1;stroke-miterlimit:4;stroke-dasharray:none"
   id="path15039" /><path
   class="bond-17 atom-14 atom-16"
   d="M 222.4,143.6 L 208.1,151.9"
   style="fill:none;fill-rule:evenodd;stroke:#ffff4c;stroke-width:10;stroke-linecap:round;stroke-linejoin:miter;stroke-opacity:1;stroke-miterlimit:4;stroke-dasharray:none"
   id="path15041" /><path
   class="bond-18 atom-16 atom-17"
   d="M 196.5,151.9 L 182.2,143.6"
   style="fill:none;fill-rule:evenodd;stroke:#ffff4c;stroke-width:10;stroke-linecap:round;stroke-linejoin:miter;stroke-opacity:1;stroke-miterlimit:4;stroke-dasharray:none"
   id="path15043" /><path
   class="bond-18 atom-16 atom-17"
   d="M 182.2,143.6 L 168.0,135.3"
   style="fill:none;fill-rule:evenodd;stroke:#ffff4c;stroke-width:10;stroke-linecap:round;stroke-linejoin:miter;stroke-opacity:1;stroke-miterlimit:4;stroke-dasharray:none"
   id="path15045" /><path
   class="bond-20 atom-17 atom-19"
   d="M 168.0,135.3 L 133.6,155.1"
   style="fill:none;fill-rule:evenodd;stroke:#ffff4c;stroke-width:10;stroke-linecap:round;stroke-linejoin:miter;stroke-opacity:1;stroke-miterlimit:4;stroke-dasharray:none"
   id="path15047" /><!-- END OF HEADER --><path
   class="bond-23 atom-19 atom-22"
   d="M 133.6,155.1 L 99.2,135.3"
   style="fill:none;fill-rule:evenodd;stroke:#ffff4c;stroke-width:10;stroke-linecap:round;stroke-linejoin:miter;stroke-opacity:1;stroke-miterlimit:4;stroke-dasharray:none"
   id="path15049" />\n<path
   class="bond-24 atom-22 atom-23"
   d="M 99.2,135.3 L 64.8,155.1"
   style="fill:none;fill-rule:evenodd;stroke:#ffff4c;stroke-width:10;stroke-linecap:round;stroke-linejoin:miter;stroke-opacity:1;stroke-miterlimit:4;stroke-dasharray:none"
   id="path15051" />\n<path
   class="bond-0 atom-0 atom-5"
   d="M 477.2,195.1 L 442.9,214.9"
   style="fill:none;fill-rule:evenodd;stroke:#000000;stroke-width:2.0px;stroke-linecap:butt;stroke-linejoin:miter;stroke-opacity:1"
   id="path4" />\n<path
   class="bond-0 atom-0 atom-5"
   d="M 468.5,191.9 L 444.4,205.8"
   style="fill:none;fill-rule:evenodd;stroke:#000000;stroke-width:2.0px;stroke-linecap:butt;stroke-linejoin:miter;stroke-opacity:1"
   id="path6" />\n<path
   class="bond-1 atom-0 atom-1"
   d="M 477.2,195.1 L 477.3,155.4"
   style="fill:none;fill-rule:evenodd;stroke:#000000;stroke-width:2.0px;stroke-linecap:butt;stroke-linejoin:miter;stroke-opacity:1"
   id="path8" />\n<path
   class="bond-2 atom-1 atom-2"
   d="M 477.3,155.4 L 442.9,135.6"
   style="fill:none;fill-rule:evenodd;stroke:#000000;stroke-width:2.0px;stroke-linecap:butt;stroke-linejoin:miter;stroke-opacity:1"
   id="path10" />\n<path
   class="bond-2 atom-1 atom-2"
   d="M 468.5,158.6 L 444.5,144.7"
   style="fill:none;fill-rule:evenodd;stroke:#000000;stroke-width:2.0px;stroke-linecap:butt;stroke-linejoin:miter;stroke-opacity:1"
   id="path12" />\n<path
   class="bond-3 atom-2 atom-3"
   d="M 442.9,135.6 L 408.5,155.4"
   style="fill:none;fill-rule:evenodd;stroke:#000000;stroke-width:2.0px;stroke-linecap:butt;stroke-linejoin:miter;stroke-opacity:1"
   id="path14" />\n<path
   class="bond-26 atom-2 atom-25"
   d="M 442.9,135.6 L 442.9,119.7"
   style="fill:none;fill-rule:evenodd;stroke:#000000;stroke-width:2.0px;stroke-linecap:butt;stroke-linejoin:miter;stroke-opacity:1"
   id="path16" />\n<path
   class="bond-26 atom-2 atom-25"
   d="M 442.9,119.7 L 442.9,103.8"
   style="fill:none;fill-rule:evenodd;stroke:#00CC00;stroke-width:2.0px;stroke-linecap:butt;stroke-linejoin:miter;stroke-opacity:1"
   id="path18" />\n<path
   class="bond-4 atom-3 atom-4"
   d="M 408.5,155.4 L 408.5,195.1"
   style="fill:none;fill-rule:evenodd;stroke:#000000;stroke-width:2.0px;stroke-linecap:butt;stroke-linejoin:miter;stroke-opacity:1"
   id="path20" />\n<path
   class="bond-4 atom-3 atom-4"
   d="M 415.7,161.3 L 415.6,189.1"
   style="fill:none;fill-rule:evenodd;stroke:#000000;stroke-width:2.0px;stroke-linecap:butt;stroke-linejoin:miter;stroke-opacity:1"
   id="path22" />\n<path
   class="bond-7 atom-3 atom-7"
   d="M 408.5,155.4 L 374.2,135.5"
   style="fill:none;fill-rule:evenodd;stroke:#000000;stroke-width:2.0px;stroke-linecap:butt;stroke-linejoin:miter;stroke-opacity:1"
   id="path24" />\n<path
   class="bond-5 atom-4 atom-5"
   d="M 408.5,195.1 L 442.9,214.9"
   style="fill:none;fill-rule:evenodd;stroke:#000000;stroke-width:2.0px;stroke-linecap:butt;stroke-linejoin:miter;stroke-opacity:1"
   id="path26" />\n<path
   class="bond-6 atom-4 atom-6"
   d="M 408.5,195.1 L 392.2,204.4"
   style="fill:none;fill-rule:evenodd;stroke:#000000;stroke-width:2.0px;stroke-linecap:butt;stroke-linejoin:miter;stroke-opacity:1"
   id="path28" />\n<path
   class="bond-6 atom-4 atom-6"
   d="M 392.2,204.4 L 375.9,213.8"
   style="fill:none;fill-rule:evenodd;stroke:#00CC00;stroke-width:2.0px;stroke-linecap:butt;stroke-linejoin:miter;stroke-opacity:1"
   id="path30" />\n<path
   class="bond-8 atom-7 atom-8"
   d="M 377.7,135.5 L 377.8,119.4"
   style="fill:none;fill-rule:evenodd;stroke:#000000;stroke-width:2.0px;stroke-linecap:butt;stroke-linejoin:miter;stroke-opacity:1"
   id="path32" />\n<path
   class="bond-8 atom-7 atom-8"
   d="M 377.8,119.4 L 377.8,103.4"
   style="fill:none;fill-rule:evenodd;stroke:#FF0000;stroke-width:2.0px;stroke-linecap:butt;stroke-linejoin:miter;stroke-opacity:1"
   id="path34" />\n<path
   class="bond-8 atom-7 atom-8"
   d="M 370.6,135.5 L 370.6,119.4"
   style="fill:none;fill-rule:evenodd;stroke:#000000;stroke-width:2.0px;stroke-linecap:butt;stroke-linejoin:miter;stroke-opacity:1"
   id="path36" />\n<path
   class="bond-8 atom-7 atom-8"
   d="M 370.6,119.4 L 370.6,103.4"
   style="fill:none;fill-rule:evenodd;stroke:#FF0000;stroke-width:2.0px;stroke-linecap:butt;stroke-linejoin:miter;stroke-opacity:1"
   id="path38" />\n<path
   class="bond-9 atom-7 atom-9"
   d="M 374.2,135.5 L 359.9,143.7"
   style="fill:none;fill-rule:evenodd;stroke:#000000;stroke-width:2.0px;stroke-linecap:butt;stroke-linejoin:miter;stroke-opacity:1"
   id="path40" />\n<path
   class="bond-9 atom-7 atom-9"
   d="M 359.9,143.7 L 345.6,152.0"
   style="fill:none;fill-rule:evenodd;stroke:#0000FF;stroke-width:2.0px;stroke-linecap:butt;stroke-linejoin:miter;stroke-opacity:1"
   id="path42" />\n<path
   class="bond-10 atom-9 atom-10"
   d="M 334.0,152.0 L 319.7,143.7"
   style="fill:none;fill-rule:evenodd;stroke:#0000FF;stroke-width:2.0px;stroke-linecap:butt;stroke-linejoin:miter;stroke-opacity:1"
   id="path44" />\n<path
   class="bond-10 atom-9 atom-10"
   d="M 319.7,143.7 L 305.4,135.4"
   style="fill:none;fill-rule:evenodd;stroke:#000000;stroke-width:2.0px;stroke-linecap:butt;stroke-linejoin:miter;stroke-opacity:1"
   id="path46" />\n<path
   class="bond-11 atom-10 atom-15"
   d="M 305.4,135.4 L 271.0,155.3"
   style="fill:none;fill-rule:evenodd;stroke:#000000;stroke-width:2.0px;stroke-linecap:butt;stroke-linejoin:miter;stroke-opacity:1"
   id="path48" />\n<path
   class="bond-12 atom-10 atom-11"
   d="M 305.4,135.4 L 305.5,95.7"
   style="fill:none;fill-rule:evenodd;stroke:#000000;stroke-width:2.0px;stroke-linecap:butt;stroke-linejoin:miter;stroke-opacity:1"
   id="path50" />\n<path
   class="bond-12 atom-10 atom-11"
   d="M 298.3,129.5 L 298.3,101.7"
   style="fill:none;fill-rule:evenodd;stroke:#000000;stroke-width:2.0px;stroke-linecap:butt;stroke-linejoin:miter;stroke-opacity:1"
   id="path52" />\n<path
   class="bond-13 atom-11 atom-12"
   d="M 305.5,95.7 L 271.1,75.9"
   style="fill:none;fill-rule:evenodd;stroke:#000000;stroke-width:2.0px;stroke-linecap:butt;stroke-linejoin:miter;stroke-opacity:1"
   id="path54" />\n<path
   class="bond-14 atom-12 atom-13"
   d="M 271.1,75.9 L 256.8,84.1"
   style="fill:none;fill-rule:evenodd;stroke:#000000;stroke-width:2.0px;stroke-linecap:butt;stroke-linejoin:miter;stroke-opacity:1"
   id="path56" />\n<path
   class="bond-14 atom-12 atom-13"
   d="M 256.8,84.1 L 242.5,92.4"
   style="fill:none;fill-rule:evenodd;stroke:#0000FF;stroke-width:2.0px;stroke-linecap:butt;stroke-linejoin:miter;stroke-opacity:1"
   id="path58" />\n<path
   class="bond-14 atom-12 atom-13"
   d="M 270.4,84.5 L 260.4,90.3"
   style="fill:none;fill-rule:evenodd;stroke:#000000;stroke-width:2.0px;stroke-linecap:butt;stroke-linejoin:miter;stroke-opacity:1"
   id="path60" />\n<path
   class="bond-14 atom-12 atom-13"
   d="M 260.4,90.3 L 250.4,96.1"
   style="fill:none;fill-rule:evenodd;stroke:#0000FF;stroke-width:2.0px;stroke-linecap:butt;stroke-linejoin:miter;stroke-opacity:1"
   id="path62" />\n<path
   class="bond-15 atom-13 atom-14"
   d="M 236.7,103.0 L 236.7,119.2"
   style="fill:none;fill-rule:evenodd;stroke:#0000FF;stroke-width:2.0px;stroke-linecap:butt;stroke-linejoin:miter;stroke-opacity:1"
   id="path64" />\n<path
   class="bond-15 atom-13 atom-14"
   d="M 236.7,119.2 L 236.7,135.4"
   style="fill:none;fill-rule:evenodd;stroke:#000000;stroke-width:2.0px;stroke-linecap:butt;stroke-linejoin:miter;stroke-opacity:1"
   id="path66" />\n<path
   class="bond-16 atom-14 atom-15"
   d="M 236.7,135.4 L 271.0,155.3"
   style="fill:none;fill-rule:evenodd;stroke:#000000;stroke-width:2.0px;stroke-linecap:butt;stroke-linejoin:miter;stroke-opacity:1"
   id="path68" />\n<path
   class="bond-16 atom-14 atom-15"
   d="M 245.4,132.2 L 269.5,146.1"
   style="fill:none;fill-rule:evenodd;stroke:#000000;stroke-width:2.0px;stroke-linecap:butt;stroke-linejoin:miter;stroke-opacity:1"
   id="path70" />\n<path
   class="bond-17 atom-14 atom-16"
   d="M 236.7,135.4 L 222.4,143.6"
   style="fill:none;fill-rule:evenodd;stroke:#000000;stroke-width:2.0px;stroke-linecap:butt;stroke-linejoin:miter;stroke-opacity:1"
   id="path72" />\n<path
   class="bond-17 atom-14 atom-16"
   d="M 222.4,143.6 L 208.1,151.9"
   style="fill:none;fill-rule:evenodd;stroke:#0000FF;stroke-width:2.0px;stroke-linecap:butt;stroke-linejoin:miter;stroke-opacity:1"
   id="path74" />\n<path
   class="bond-18 atom-16 atom-17"
   d="M 196.5,151.9 L 182.2,143.6"
   style="fill:none;fill-rule:evenodd;stroke:#0000FF;stroke-width:2.0px;stroke-linecap:butt;stroke-linejoin:miter;stroke-opacity:1"
   id="path76" />\n<path
   class="bond-18 atom-16 atom-17"
   d="M 182.2,143.6 L 168.0,135.3"
   style="fill:none;fill-rule:evenodd;stroke:#000000;stroke-width:2.0px;stroke-linecap:butt;stroke-linejoin:miter;stroke-opacity:1"
   id="path78" />\n<path
   class="bond-19 atom-17 atom-18"
   d="M 171.5,135.3 L 171.5,119.3"
   style="fill:none;fill-rule:evenodd;stroke:#000000;stroke-width:2.0px;stroke-linecap:butt;stroke-linejoin:miter;stroke-opacity:1"
   id="path80" />\n<path
   class="bond-19 atom-17 atom-18"
   d="M 171.5,119.3 L 171.5,103.2"
   style="fill:none;fill-rule:evenodd;stroke:#FF0000;stroke-width:2.0px;stroke-linecap:butt;stroke-linejoin:miter;stroke-opacity:1"
   id="path82" />\n<path
   class="bond-19 atom-17 atom-18"
   d="M 164.4,135.3 L 164.4,119.3"
   style="fill:none;fill-rule:evenodd;stroke:#000000;stroke-width:2.0px;stroke-linecap:butt;stroke-linejoin:miter;stroke-opacity:1"
   id="path84" />\n<path
   class="bond-19 atom-17 atom-18"
   d="M 164.4,119.3 L 164.4,103.2"
   style="fill:none;fill-rule:evenodd;stroke:#FF0000;stroke-width:2.0px;stroke-linecap:butt;stroke-linejoin:miter;stroke-opacity:1"
   id="path86" />\n<path
   class="bond-20 atom-17 atom-19"
   d="M 168.0,135.3 L 133.6,155.1"
   style="fill:none;fill-rule:evenodd;stroke:#000000;stroke-width:2.0px;stroke-linecap:butt;stroke-linejoin:miter;stroke-opacity:1"
   id="path88" />\n<path
   class="bond-21 atom-19 atom-20"
   d="M 133.6,155.1 L 127.6,194.8 L 139.5,194.8 Z"
   style="fill:#000000;fill-rule:evenodd;fill-opacity:1;stroke:#000000;stroke-width:2.0px;stroke-linecap:butt;stroke-linejoin:miter;stroke-opacity:1;"
   id="path90" />\n<path
   class="bond-23 atom-19 atom-22"
   d="M 133.6,155.1 L 99.2,135.3"
   style="fill:none;fill-rule:evenodd;stroke:#000000;stroke-width:2.0px;stroke-linecap:butt;stroke-linejoin:miter;stroke-opacity:1"
   id="path92" />\n<path
   class="bond-22 atom-20 atom-21"
   d="M 133.5,194.8 L 99.1,214.7"
   style="fill:none;fill-rule:evenodd;stroke:#000000;stroke-width:2.0px;stroke-linecap:butt;stroke-linejoin:miter;stroke-opacity:1"
   id="path94" />\n<path
   class="bond-24 atom-22 atom-23"
   d="M 99.2,135.3 L 64.8,155.1"
   style="fill:none;fill-rule:evenodd;stroke:#000000;stroke-width:2.0px;stroke-linecap:butt;stroke-linejoin:miter;stroke-opacity:1"
   id="path96" />\n<path
   class="bond-25 atom-23 atom-24"
   d="M 66.6,152.0 L 52.8,144.0"
   style="fill:none;fill-rule:evenodd;stroke:#000000;stroke-width:2.0px;stroke-linecap:butt;stroke-linejoin:miter;stroke-opacity:1"
   id="path98" />\n<path
   class="bond-25 atom-23 atom-24"
   d="M 52.8,144.0 L 39.1,136.1"
   style="fill:none;fill-rule:evenodd;stroke:#FF0000;stroke-width:2.0px;stroke-linecap:butt;stroke-linejoin:miter;stroke-opacity:1"
   id="path100" />\n<path
   class="bond-25 atom-23 atom-24"
   d="M 63.0,158.2 L 49.3,150.2"
   style="fill:none;fill-rule:evenodd;stroke:#000000;stroke-width:2.0px;stroke-linecap:butt;stroke-linejoin:miter;stroke-opacity:1"
   id="path102" />\n<path
   class="bond-25 atom-23 atom-24"
   d="M 49.3,150.2 L 35.5,142.2"
   style="fill:none;fill-rule:evenodd;stroke:#FF0000;stroke-width:2.0px;stroke-linecap:butt;stroke-linejoin:miter;stroke-opacity:1"
   id="path104" />\n<path
   class="atom-6"
   d="M 362.0 215.3 Q 362.0 212.2, 363.5 210.5 Q 365.0 208.9, 367.8 208.9 Q 370.4 208.9, 371.8 210.7 L 370.6 211.7 Q 369.6 210.3, 367.8 210.3 Q 365.8 210.3, 364.8 211.6 Q 363.8 212.9, 363.8 215.3 Q 363.8 217.8, 364.9 219.1 Q 365.9 220.4, 368.0 220.4 Q 369.3 220.4, 371.0 219.5 L 371.5 220.9 Q 370.8 221.3, 369.8 221.6 Q 368.8 221.8, 367.7 221.8 Q 365.0 221.8, 363.5 220.1 Q 362.0 218.5, 362.0 215.3 "
   fill="#00CC00"
   id="path106" />\n<path
   class="atom-6"
   d="M 373.3 208.1 L 374.9 208.1 L 374.9 221.6 L 373.3 221.6 L 373.3 208.1 "
   fill="#00CC00"
   id="path108" />\n<path
   class="atom-8"
   d="M 368.4 95.8 Q 368.4 92.8, 369.9 91.1 Q 371.4 89.4, 374.2 89.4 Q 377.0 89.4, 378.5 91.1 Q 380.0 92.8, 380.0 95.8 Q 380.0 98.9, 378.5 100.7 Q 377.0 102.4, 374.2 102.4 Q 371.4 102.4, 369.9 100.7 Q 368.4 98.9, 368.4 95.8 M 374.2 101.0 Q 376.1 101.0, 377.2 99.7 Q 378.2 98.4, 378.2 95.8 Q 378.2 93.4, 377.2 92.1 Q 376.1 90.8, 374.2 90.8 Q 372.3 90.8, 371.2 92.1 Q 370.2 93.3, 370.2 95.8 Q 370.2 98.4, 371.2 99.7 Q 372.3 101.0, 374.2 101.0 "
   fill="#FF0000"
   id="path110" />\n<path
   class="atom-9"
   d="M 337.0 149.0 L 341.1 155.7 Q 341.5 156.3, 342.2 157.5 Q 342.9 158.7, 342.9 158.8 L 342.9 149.0 L 344.6 149.0 L 344.6 161.6 L 342.9 161.6 L 338.4 154.3 Q 337.9 153.5, 337.3 152.5 Q 336.8 151.5, 336.6 151.2 L 336.6 161.6 L 335.0 161.6 L 335.0 149.0 L 337.0 149.0 "
   fill="#0000FF"
   id="path112" />\n<path
   class="atom-9"
   d="M 334.8 162.9 L 336.6 162.9 L 336.6 168.3 L 343.0 168.3 L 343.0 162.9 L 344.7 162.9 L 344.7 175.5 L 343.0 175.5 L 343.0 169.7 L 336.6 169.7 L 336.6 175.5 L 334.8 175.5 L 334.8 162.9 "
   fill="#0000FF"
   id="path114" />\n<path
   class="atom-13"
   d="M 233.9 89.4 L 238.1 96.1 Q 238.5 96.7, 239.1 97.9 Q 239.8 99.1, 239.8 99.2 L 239.8 89.4 L 241.5 89.4 L 241.5 102.0 L 239.8 102.0 L 235.3 94.7 Q 234.8 93.8, 234.3 92.9 Q 233.7 91.9, 233.6 91.6 L 233.6 102.0 L 231.9 102.0 L 231.9 89.4 L 233.9 89.4 "
   fill="#0000FF"
   id="path116" />\n<path
   class="atom-16"
   d="M 199.5 148.9 L 203.7 155.6 Q 204.1 156.2, 204.7 157.4 Q 205.4 158.6, 205.4 158.7 L 205.4 148.9 L 207.1 148.9 L 207.1 161.5 L 205.4 161.5 L 200.9 154.2 Q 200.4 153.3, 199.8 152.4 Q 199.3 151.4, 199.2 151.1 L 199.2 161.5 L 197.5 161.5 L 197.5 148.9 L 199.5 148.9 "
   fill="#0000FF"
   id="path118" />\n<path
   class="atom-16"
   d="M 197.4 162.8 L 199.1 162.8 L 199.1 168.2 L 205.5 168.2 L 205.5 162.8 L 207.3 162.8 L 207.3 175.4 L 205.5 175.4 L 205.5 169.6 L 199.1 169.6 L 199.1 175.4 L 197.4 175.4 L 197.4 162.8 "
   fill="#0000FF"
   id="path120" />\n<path
   class="atom-18"
   d="M 162.2 95.7 Q 162.2 92.6, 163.7 90.9 Q 165.2 89.2, 168.0 89.2 Q 170.8 89.2, 172.3 90.9 Q 173.8 92.6, 173.8 95.7 Q 173.8 98.8, 172.3 100.5 Q 170.8 102.2, 168.0 102.2 Q 165.2 102.2, 163.7 100.5 Q 162.2 98.8, 162.2 95.7 M 168.0 100.8 Q 169.9 100.8, 170.9 99.5 Q 172.0 98.2, 172.0 95.7 Q 172.0 93.2, 170.9 91.9 Q 169.9 90.7, 168.0 90.7 Q 166.1 90.7, 165.0 91.9 Q 164.0 93.2, 164.0 95.7 Q 164.0 98.2, 165.0 99.5 Q 166.1 100.8, 168.0 100.8 "
   fill="#FF0000"
   id="path122" />\n<path
   class="atom-24"
   d="M 24.7 135.3 Q 24.7 132.2, 26.2 130.5 Q 27.7 128.8, 30.5 128.8 Q 33.3 128.8, 34.8 130.5 Q 36.3 132.2, 36.3 135.3 Q 36.3 138.3, 34.8 140.1 Q 33.2 141.8, 30.5 141.8 Q 27.7 141.8, 26.2 140.1 Q 24.7 138.3, 24.7 135.3 M 30.5 140.4 Q 32.4 140.4, 33.4 139.1 Q 34.5 137.8, 34.5 135.3 Q 34.5 132.8, 33.4 131.5 Q 32.4 130.3, 30.5 130.3 Q 28.5 130.3, 27.5 131.5 Q 26.4 132.8, 26.4 135.3 Q 26.4 137.8, 27.5 139.1 Q 28.5 140.4, 30.5 140.4 "
   fill="#FF0000"
   id="path124" />\n<path
   class="atom-25"
   d="M 438.1 96.3 Q 438.1 93.2, 439.5 91.5 Q 441.0 89.8, 443.8 89.8 Q 446.4 89.8, 447.8 91.7 L 446.6 92.7 Q 445.6 91.3, 443.8 91.3 Q 441.9 91.3, 440.9 92.6 Q 439.9 93.9, 439.9 96.3 Q 439.9 98.8, 440.9 100.1 Q 442.0 101.4, 444.0 101.4 Q 445.4 101.4, 447.0 100.5 L 447.5 101.9 Q 446.9 102.3, 445.9 102.5 Q 444.9 102.8, 443.8 102.8 Q 441.0 102.8, 439.5 101.1 Q 438.1 99.4, 438.1 96.3 "
   fill="#00CC00"
   id="path126" />\n<path
   class="atom-25"
   d="M 449.4 89.1 L 451.0 89.1 L 451.0 102.6 L 449.4 102.6 L 449.4 89.1 "
   fill="#00CC00"
   id="path128" />\n<path
   class="bond-20 atom-17 atom-19"
   d="M 168.0,135.3 L 133.6,155.1"
   style="fill:none;fill-rule:evenodd;stroke:#000000;stroke-width:2.0px;stroke-linecap:butt;stroke-linejoin:miter;stroke-opacity:1"
   id="path2429" /><path
   class="bond-23 atom-19 atom-22"
   d="M 133.6,155.1 L 99.2,135.3"
   style="fill:none;fill-rule:evenodd;stroke:#000000;stroke-width:2.0px;stroke-linecap:butt;stroke-linejoin:miter;stroke-opacity:1"
   id="path2433" /><path
   class="bond-24 atom-22 atom-23"
   d="M 99.2,135.3 L 64.8,155.1"
   style="fill:none;fill-rule:evenodd;stroke:#000000;stroke-width:2.0px;stroke-linecap:butt;stroke-linejoin:miter;stroke-opacity:1"
   id="path2435" /><path
   class="atom-18"
   d="M 162.2 95.7 Q 162.2 92.6, 163.7 90.9 Q 165.2 89.2, 168.0 89.2 Q 170.8 89.2, 172.3 90.9 Q 173.8 92.6, 173.8 95.7 Q 173.8 98.8, 172.3 100.5 Q 170.8 102.2, 168.0 102.2 Q 165.2 102.2, 163.7 100.5 Q 162.2 98.8, 162.2 95.7 M 168.0 100.8 Q 169.9 100.8, 170.9 99.5 Q 172.0 98.2, 172.0 95.7 Q 172.0 93.2, 170.9 91.9 Q 169.9 90.7, 168.0 90.7 Q 166.1 90.7, 165.0 91.9 Q 164.0 93.2, 164.0 95.7 Q 164.0 98.2, 165.0 99.5 Q 166.1 100.8, 168.0 100.8 "
   fill="#FF0000"
   id="path4489" /><path
   class="atom-6"
   d="m 74.696,218.25 q 0,-3.1 1.5,-4.8 1.5,-1.6 4.3,-1.6 2.6,0 4,1.8 l -1.2,1 q -1,-1.4 -2.8,-1.4 -2,0 -3,1.3 -1,1.3 -1,3.7 0,2.5 1.1,3.8 1,1.3 3.1,1.3 1.3,0 3,-0.9 l 0.5,1.4 q -0.7,0.4 -1.7,0.7 -1,0.2 -2.1,0.2 -2.7,0 -4.2,-1.7 -1.5,-1.6 -1.5,-4.8"
   fill="#00cc00"
   id="path970"
   style="fill:#000000;fill-opacity:1" /><path
   class="atom-9"
   d="m 85.699891,212 h 1.8 v 5.4 h 6.4 V 212 h 1.699999 v 12.6 h -1.699999 v -5.8 h -6.4 v 5.8 h -1.8 V 212"
   fill="#0000ff"
   id="path972"
   style="fill:#000000;fill-opacity:1" /><text
   xml:space="preserve"
   style="font-style:normal;font-weight:normal;font-size:13.3333px;line-height:1.25;font-family:sans-serif;fill:#000000;fill-opacity:1;stroke:none"
   x="96.203835"
   y="228.60503"
   id="text4574"><tspan
     sodipodi:role="line"
     id="tspan4572"
     x="96.203835"
     y="228.60503"
     style="font-size:13.3333px">3</tspan></text></svg>
